<svg xmlns="http://www.w3.org/2000/svg" viewBox="0 0 595.83 509.09"><defs><style>.cls-1{fill:#4f7ebf;}.cls-2{fill:#bb1f37;}.cls-3{fill:#fff;}.cls-4{fill:#b21e3a;}.cls-5{fill:#5085c4;}</style></defs><g id="Layer_2" data-name="Layer 2"><g id="Layer_1-2" data-name="Layer 1"><path class="cls-1" d="M12.24,58.58V75.65H6.57V58.58H1.91V53.76h15v4.82Z"/><path class="cls-1" d="M46.41,61.93h8.2V53.76h5.71V75.65H54.61V66.79h-8.2v8.86H40.73V53.76h5.68Z"/><path class="cls-1" d="M98.65,58.58H91.89v3.65h6.4v4.82h-6.4v3.78h6.76v4.82H86.21V53.76H98.65Z"/><path class="cls-1" d="M197.16,75.06a13.48,13.48,0,0,1-4.92,1.08,11.92,11.92,0,0,1-8.47-3.28,11.49,11.49,0,0,1-3.31-8A11.47,11.47,0,0,1,192,53.4a13.56,13.56,0,0,1,5.12,1.11v6.8a6.07,6.07,0,0,0-4.95-2.4,5.52,5.52,0,0,0-3.94,1.45,5.83,5.83,0,0,0,3.94,10.27,6.42,6.42,0,0,0,4.95-2.3Z"/><path class="cls-1" d="M227.75,61.93H236V53.76h5.71V75.65H236V66.79h-8.2v8.86h-5.68V53.76h5.68Z"/><path class="cls-1" d="M273.23,53.76V75.65h-5.68V53.76Z"/><path class="cls-1" d="M304.8,53.76V70.83h6.83v4.82H299.12V53.76Z"/><path class="cls-1" d="M335.84,75.65V53.76h7.45c2.2,0,5.88.29,8.7,3a10.67,10.67,0,0,1,3.05,8,10.13,10.13,0,0,1-2.85,7.59,11.89,11.89,0,0,1-8.41,3.31Zm5.68-4.82h1.15a6.52,6.52,0,0,0,4.79-1.58,6,6,0,0,0,1.67-4.5,6.56,6.56,0,0,0-1.7-4.79,6.42,6.42,0,0,0-4.53-1.38h-1.38Z"/><path class="cls-1" d="M388.81,53.76a7.06,7.06,0,0,1,5.35,1.94A7.23,7.23,0,0,1,396,60.62a6.33,6.33,0,0,1-1.74,4.56,6.18,6.18,0,0,1-3,1.51l6.86,9h-7.06l-5.45-8.4v8.4H380V53.76Zm-3.19,9.81h1.09a4.29,4.29,0,0,0,2.75-.88,2.73,2.73,0,0,0,.73-1.84,2.6,2.6,0,0,0-.76-1.84,3.87,3.87,0,0,0-2.72-.85h-1.09Z"/><path class="cls-1" d="M434.26,58.58H427.5v3.65h6.4v4.82h-6.4v3.78h6.76v4.82H421.82V53.76h12.44Z"/><path class="cls-1" d="M459.16,75.65V53.76h5.68l10.47,13.39V53.76H481V75.65h-5.68L464.84,62.26V75.65Z"/><path class="cls-1" d="M509.44,53.76h4.95L509,63.41h-3.38Z"/><path class="cls-1" d="M538.12,69.09a7.65,7.65,0,0,0,5,2.23,2.86,2.86,0,0,0,2.2-.76,1.93,1.93,0,0,0,.56-1.37,1.73,1.73,0,0,0-.63-1.32,7.91,7.91,0,0,0-2.82-1.15L541,66.26a7.1,7.1,0,0,1-3.15-1.77,5.51,5.51,0,0,1-1.24-3.87,7.15,7.15,0,0,1,2-5.28,7.68,7.68,0,0,1,5.61-2.07A15.41,15.41,0,0,1,551,55l-2.26,4.43A5.77,5.77,0,0,0,545,58a2.73,2.73,0,0,0-1.88.66,1.65,1.65,0,0,0-.55,1.18,1.47,1.47,0,0,0,.29,1,3.67,3.67,0,0,0,1.91,1l1.74.53a8.31,8.31,0,0,1,4,2.16,5.2,5.2,0,0,1,1.41,3.91,7.39,7.39,0,0,1-2.07,5.51c-1.87,1.87-4.13,2.23-6.46,2.23a11.68,11.68,0,0,1-4.3-.72,14.8,14.8,0,0,1-3.32-1.74Z"/><path class="cls-2" d="M24.59,461.24a27.74,27.74,0,0,1-3,3.18l4.89,5.19H19.4l-1.9-2a12.3,12.3,0,0,1-7.36,2.5,7.46,7.46,0,0,1-5.38-1.84A5.91,5.91,0,0,1,3,463.93a5.77,5.77,0,0,1,1.64-4.2,9.77,9.77,0,0,1,3.58-2.14,13.47,13.47,0,0,1-1.28-1.74,4.82,4.82,0,0,1-.76-2.69,5.89,5.89,0,0,1,1.68-4A7.06,7.06,0,0,1,13,447.22,7.07,7.07,0,0,1,18.09,449a5.82,5.82,0,0,1,1.74,4.1,4.81,4.81,0,0,1-1.51,3.51,8.26,8.26,0,0,1-2.56,1.71l2.75,2.89a26.5,26.5,0,0,0,2.86-3.12Zm-13.66-.79c-.23.13-2.07,1.05-2.07,2.56a2,2,0,0,0,.66,1.48,2.81,2.81,0,0,0,1.87.62,5.57,5.57,0,0,0,3-.95Zm1.22-6.07a9.8,9.8,0,0,0,1.15,1.31,5.92,5.92,0,0,0,1.31-1,2.43,2.43,0,0,0,.69-1.6,1.87,1.87,0,0,0-1.91-2,1.8,1.8,0,0,0-1.24.46,1.7,1.7,0,0,0-.59,1.35A2.65,2.65,0,0,0,12.15,454.38Z"/><path class="cls-2" d="M48.67,447.71v17.07H55.5v4.83H43v-21.9Z"/><path class="cls-2" d="M74.14,452.54H67.37v3.64h6.4V461h-6.4v3.77h6.77v4.83H61.7v-21.9H74.14Z"/><path class="cls-2" d="M80,469.61l3.71-21.9h5.61l4.43,11.69,4.7-11.69h5.67l3.29,21.9h-5.68L100.16,457l-5.28,12.61H92.61l-5-12.61-1.88,12.61Z"/><path class="cls-2" d="M120,447.71v21.9h-5.68v-21.9Z"/><path class="cls-2" d="M140.33,452.54h-6.77v3.64H140V461h-6.4v3.77h6.77v4.83H127.89v-21.9h12.44Z"/><path class="cls-2" d="M152.89,447.71v13a4.44,4.44,0,0,0,1.12,3.38,4.09,4.09,0,0,0,2.69,1.05,4.21,4.21,0,0,0,2.63-.95c1.31-1.15,1.27-2.76,1.27-4V447.71h5.68v12.57c0,2.3-.1,4.7-2.46,7.09a9.45,9.45,0,0,1-7.22,2.73c-3.45,0-5.91-1.18-7.25-2.63-1.91-2.07-2.14-4.86-2.14-7.19V447.71Z"/><path class="cls-2" d="M180.43,457.92l-7-10.21h7l3.24,5.68,3.39-5.68h7l-7.13,10.21,8.27,11.69H188.3l-4.66-7.13-4.92,7.13h-6.86Z"/><path class="cls-2" d="M464,469a13.41,13.41,0,0,1-4.93,1.09,11.9,11.9,0,0,1-8.46-3.28,11.49,11.49,0,0,1-3.32-8,11.51,11.51,0,0,1,11.59-11.49,13.66,13.66,0,0,1,5.12,1.12v6.79a6.11,6.11,0,0,0-5-2.39,5.55,5.55,0,0,0-3.94,1.44,6.13,6.13,0,0,0-1.9,4.5,6,6,0,0,0,1.77,4.26,6.09,6.09,0,0,0,4.07,1.51,6.43,6.43,0,0,0,5-2.29Z"/><path class="cls-2" d="M484.06,452.54H477.3v3.64h6.4V461h-6.4v3.77h6.76v4.83H471.62v-21.9h12.44Z"/><path class="cls-2" d="M491.7,469.61v-21.9h5.68l10.47,13.39V447.71h5.68v21.9h-5.68l-10.47-13.4v13.4Z"/><path class="cls-2" d="M530.43,452.54v17.07h-5.68V452.54h-4.66v-4.83h15v4.83Z"/><path class="cls-2" d="M554.09,452.54h-6.76v3.64h6.4V461h-6.4v3.77h6.76v4.83H541.65v-21.9h12.44Z"/><path class="cls-2" d="M570.59,447.71a7.07,7.07,0,0,1,5.35,1.94,7.18,7.18,0,0,1,1.87,4.92,6.36,6.36,0,0,1-1.73,4.57,6.22,6.22,0,0,1-3,1.51l6.86,9h-7.06l-5.45-8.41v8.41h-5.68v-21.9Zm-3.18,9.82h1.08a4.25,4.25,0,0,0,2.76-.89,2.72,2.72,0,0,0,.72-1.84,2.6,2.6,0,0,0-.75-1.84,3.9,3.9,0,0,0-2.73-.85h-1.08Z"/><path class="cls-3" d="M298.13,265.1l-.25-1.35a25.57,25.57,0,0,0-4.58-.41c-11.87,1-23.85,1.45-35.57,3.41-20.22,3.38-40.22,8.09-60.42,11.59q-29.82,5.18-59.87,9c-14.8,1.86-29.72,3.06-44.62,3.79-28.22,1.39-56-2.78-83.85-6.94-7.54-1.14-9,0-9,7.78q0,48,0,96c0,9.27.58,10,9.72,10H238.21c38,0,76,0,114-.08,2.67,0,6.4-.29,7.85-2,7.52-8.77,12.06-18.79,8-30.59C364.32,354.4,356,347,346.43,341.66c-14.84-8.33-30.39-15.38-45.31-23.59-9.47-5.21-18.92-10.79-27.29-17.56-8.57-6.93-9.52-15.11.49-22.51a80.74,80.74,0,0,1,10.09-6.2C288.9,269.41,293.55,267.32,298.13,265.1Z"/><path class="cls-3" d="M595.83,338.25h-.05c0-17.49.05-35,0-52.47,0-5.44-2.14-7.58-6.62-7-12,1.55-24,3-35.9,4.77-24,3.56-48.09,3.61-72.07,1.57-21.44-1.83-42.73-5.52-64-8.75-24.56-3.72-49-7.89-73.58-11.75-12.2-1.92-22,2.58-29.67,11.95-3.77,4.59-4.14,9.39-.21,13.73,3.61,4,7.55,8.32,12.27,10.56,14.44,6.89,29.09,13.52,44.11,19,17.87,6.5,36.25,11.59,54.35,17.49,17.55,5.73,35.52,10.41,51.68,19.73,13.32,7.68,24.54,17.14,29.08,32.83,2.38,8.2,2.9,8.06,11.53,8.06q35.47,0,71,0c6.56,0,8.17-1.71,8.17-8.21Q595.82,364,595.83,338.25Z"/></g><g id="HOME"><g id="gyXbhZ.tif"><path class="cls-4" d="M81.73,169.53c10-.78,19.49-1,28.74-2.39s18.48-4.16,27.78-6c3.56-.69,4.54-2.48,4.6-5.76.43-21.82,1.25-43.64,1.39-65.47.18-26.31-.18-52.62-.32-78.93,0-6.19,3.7-10.66,9.17-11,5-.3,8.86,2.86,8.88,9.23,0,12.13-1,24.25-1.43,36.39q-1.8,53.91-3.41,107.83a15.16,15.16,0,0,0,.38,2.62c10.82-.72,20.92-2.29,27.61-12.07,3.56-5.23,9.09-7.16,15.08-7.61,5.3-.39,10.64-.18,16-.41,5.6-.23,11.21-.47,16.77-1.07,6.17-.68,11.7.06,17.13,3.58a124,124,0,0,0,17.25,8.83c9.88,4.35,13.62,11.74,10.58,22.11-3.39,11.59-11.42,19.78-20.47,27-14,11.23-29.17,20.58-47,24.18-12.5,2.52-24.73,2.12-33.93-8.71-5.82-6.85-6.15-14.86-4-23.12,1.24-4.83,3.13-9.5,4.16-14.36,1.48-6.94-1.59-9.48-8.33-7.08-13,4.63-12.62,1.59-12,17.26.58,15.45,1.16,31,8.89,45.1a8.16,8.16,0,0,1-3.55,11.55c-3.78,1.9-8.11.07-10.48-4.81-5.4-11.14-5.3-23.22-5.78-35.2-.26-6.31-.46-12.65-1.22-18.91-.75-6.07-2.36-6.94-8.35-5.77-15.36,3-30.76,5.78-46,9.14-2.84.62-6.93,3.19-7.36,5.45-.81,4.32.52,9.06,1.18,13.6.06.42,1.72.89,2.64.87,3.71,0,5.31,2.3,6.38,5.31,1.82,5.12-3.6,13.89-9.87,16-4.45,1.51-9.48-1.94-10.65-8.48a242.09,242.09,0,0,1-2.71-24.22c-.42-5.44-1.53-6.68-7-5.84-4.1.63-8.16,1.93-12.26,2.06-9.7.32-16.16-10.11-12.08-19,2-4.42,5.9-4.32,9.79-4.07,5.48.36,11,.65,16.41,1.38,3.39.45,4.73-.83,4.71-3.92-.06-13.13-.29-26.26-.25-39.39,0-7.12.1-14.28.83-21.34.46-4.51,3.39-7.73,8.4-7.55s7,4,7,8.2c0,9-.77,17.92-1.23,26.89C83,143.68,82.43,155.63,81.73,169.53Zm122.33,36a68.14,68.14,0,0,0,32.31-9c10.23-5.73,19.42-12.78,25.36-23.22,2.06-3.62,3.1-7.41-.72-10.82a34.93,34.93,0,0,0-24.48-9.37c-18,.13-41.45,22.29-46.31,37.94-2.7,8.69,1.17,13.79,10.35,14.43C201.73,205.62,202.9,205.55,204.06,205.55Z"/><path class="cls-4" d="M284.58,172c0-8.15-.11-16.31.05-24.47a36.59,36.59,0,0,1,1.25-10.32c.76-2.37,2.91-5.84,4.67-6a11.6,11.6,0,0,1,8.17,3.37c3.88,4,4.35,9.43,4,15-.61,8.63-1,17.28-1.19,25.92,0,1.57,1.06,3.17,1.63,4.75,1.66-.89,4-1.35,4.87-2.74,5.61-9,10.76-18.3,16.33-27.33,5.72-9.26,11.12-18.83,17.85-27.32,5.41-6.81,11.4-5.2,13.62,3.32,2.94,11.24,5,22.73,7.15,34.15.91,4.72,1,9.6,1.9,14.33.32,1.73,1.58,4.21,2.9,4.56s3.81-1,4.87-2.39q11.55-14.67,22.69-29.67c6.74-9,13.33-18.19,19.9-27.34,2.47-3.42,6-5.63,9.72-4.17,2.81,1.09,6.23,4.2,6.77,6.93a272.31,272.31,0,0,1,4.25,31.07c1.27,15.91,1.47,31.92,3,47.81.63,6.64,3.11,13.18,5.34,19.55,1.86,5.32,2.15,11.72-.3,13.17s-9-2.1-11.88-6.54c-6.58-10.12-8.14-21.63-9.17-33.29-1.15-12.92-2.17-25.85-3.61-38.74-.28-2.45-2.26-4.72-3.45-7.07-2.55,1.51-5.89,2.42-7.5,4.61C400,164.53,392.51,176.51,384,187.7a111.86,111.86,0,0,1-17.52,18.15c-5.74,4.73-9.93,3.34-12.05-3.71-2.73-9-4.35-18.38-6.31-27.63-.79-3.74-1-7.61-1.92-11.31-.43-1.69-1.89-4.28-3-4.38a6.71,6.71,0,0,0-5.26,2.6c-4.52,7.13-8.36,14.69-12.9,21.8-6.59,10.33-13.05,20.81-20.56,30.46-5.65,7.26-12.8,6-16.7-2.37A37.57,37.57,0,0,1,284.44,198c-.5-8.62-.14-17.29-.14-25.95Z"/><path class="cls-4" d="M534,216.07c11.08-2,22.15-4,33.26-5.93,2-.34,5.48-.58,5.9.29a10.14,10.14,0,0,1,.37,7c-1.91,5.78-6.94,8.19-12.44,8.38-15.42.54-30.9,1.33-46.28.5-14.47-.79-28.57-4.32-41.12-12.35-9.55-6.1-15.61-14.39-16.36-25.9-.21-3.17-1.88-4.4-4.14-6.08-2.62-1.95-5.29-4.59-6.48-7.52-2.45-6.08.92-11,8.25-11.52,4.92-.38,7.18-2.75,9.51-6.58,7.13-11.73,15.65-22.3,27.59-29.6,12.62-7.72,27.64-6,38,4.24,6.06,6,6.69,12.8,1.69,19.74-6.62,9.21-16,15.07-25.9,19.84a325.24,325.24,0,0,1-30.39,12.26c-3,1.08-3.92,2.6-4,5.32-.13,6.75,3.59,11.18,8.89,14.59,10.5,6.75,22.4,9.11,34.48,10.73,6.26.84,12.59,1.1,18.88,1.63Zm-58-52.85.66,1.55c2.09.12,4.25.64,6.27.3,13-2.2,24.32-7.85,33.23-17.68,1.54-1.7,2.73-5,2.13-7-.48-1.61-3.8-2.5-6-3.4a7.2,7.2,0,0,0-3.46-.05C492.48,139.2,484.51,151.54,476,163.22Z"/></g></g><g id="RHill"><path class="cls-5" d="M595.83,338.25q0,25.72,0,51.47c0,6.5-1.61,8.21-8.17,8.21q-35.48.06-71,0c-8.63,0-9.15.14-11.53-8.06-4.54-15.69-15.76-25.15-29.08-32.83-16.16-9.32-34.13-14-51.68-19.73-18.1-5.9-36.48-11-54.35-17.49-15-5.47-29.67-12.1-44.11-19-4.72-2.24-8.66-6.56-12.27-10.56-3.93-4.34-3.56-9.14.21-13.73,7.69-9.37,17.47-13.87,29.67-11.95,24.54,3.86,49,8,73.58,11.75,21.3,3.23,42.59,6.92,64,8.75,24,2,48.1,2,72.07-1.57,11.94-1.77,23.93-3.22,35.9-4.77,4.48-.57,6.6,1.57,6.62,7,.07,17.49,0,35,0,52.47Z"/></g><g id="LHILL"><path class="cls-5" d="M298.13,265.1c-4.58,2.22-9.23,4.31-13.72,6.7a80.74,80.74,0,0,0-10.09,6.2c-10,7.4-9.06,15.58-.49,22.51,8.37,6.77,17.82,12.35,27.29,17.56,14.92,8.21,30.47,15.26,45.31,23.59C356,347,364.32,354.4,368.06,365.3c4.05,11.8-.49,21.82-8,30.59-1.45,1.69-5.18,2-7.85,2-38,.12-76,.08-114,.08H9.72C.58,398,0,397.2,0,387.93q.09-48,0-96c0-7.73,1.41-8.92,9-7.78,27.8,4.16,55.63,8.33,83.85,6.94,14.9-.73,29.82-1.93,44.62-3.79q30-3.76,59.87-9c20.2-3.5,40.2-8.21,60.42-11.59,11.72-2,23.7-2.38,35.57-3.41a25.57,25.57,0,0,1,4.58.41Z"/><path class="cls-5" d="M298.13,265.1c-4.58,2.22-9.23,4.31-13.72,6.7a80.74,80.74,0,0,0-10.09,6.2c-10,7.4-9.06,15.58-.49,22.51,8.37,6.77,17.82,12.35,27.29,17.56,14.92,8.21,30.47,15.26,45.31,23.59C356,347,364.32,354.4,368.06,365.3c4.05,11.8-.49,21.82-8,30.59-1.45,1.69-5.18,2-7.85,2-38,.12-76,.08-114,.08H9.72C.58,398,0,397.2,0,387.93q.09-48,0-96c0-7.73,1.41-8.92,9-7.78,27.8,4.16,55.63,8.33,83.85,6.94,14.9-.73,29.82-1.93,44.62-3.79q30-3.76,59.87-9c20.2-3.5,40.2-8.21,60.42-11.59,11.72-2,23.7-2.38,35.57-3.41a25.57,25.57,0,0,1,4.58.41Z"/></g><g id="Family"><path class="cls-2" d="M316.41,456.24c-1.29,3.21-2.6,6.41-3.86,9.62a42.13,42.13,0,0,1-2.08,5.54c-2.42,4.27-6.29,4.73-9.79,1.26a24.32,24.32,0,0,1-3.13-3.87,41.35,41.35,0,0,1-2.2-4.31c-2.47,2.57-4.57,4.88-6.82,7-2.73,2.65-6.37,4.27-9.35,1.73-1.71-1.45-2.17-5.23-1.95-7.85.27-3.36,1.79-6.61,3-10.64-8.14.21-15.07,2.79-21.91,5.61-.73.3-1.31,1.95-1.27,2.94a109.32,109.32,0,0,0,1,12.4c.55,3.4,1.94,6.27,6.42,1.88l.89,1.54c-1.05,2-1.86,5.5-3.22,5.74-2,.33-5.38-1.15-6.25-2.85-1.61-3.12-2-6.93-2.54-10.51-.48-3.07-.47-6.21-.69-9.42a54,54,0,0,1-7.83-.12c-1.12-.17-2-1.54-3.07-2.37,1-.94,1.83-2.3,3-2.74,2.32-.88,5.77-.5,7-2s.29-4.77.31-7.26c0-6.63.07-6.46-6.34-4.34-1.69.55-5.11.11-5.64-.93-1.27-2.51.63-4.05,3.32-4.81,3.83-1.08,8.49-1.33,9.07-6.93,0-.26,3-.86,3.52-.3,3.19,3.39,6.42,1.82,9.62.42,10.76-4.71,21.49-9.5,32.25-14.24.41-.18.93-.13,2,.63a29.33,29.33,0,0,1-4.5,3.37c-11.47,5.68-22.89,11.47-34.58,16.67-4,1.78-5.3,4.07-4.77,8,.11.82.28,1.64.4,2.46,1.1,7.68,2.15,8.25,9.58,5.86,4.08-1.3,8.41-1.91,12.38-3.48a92.35,92.35,0,0,0,11.35-6c6.62-3.77,10.4-1.63,10.57,6a104.63,104.63,0,0,0,.77,13.39c.24,1.65,2.19,3,3.36,4.56,1.2-1.06,2.82-1.89,3.52-3.21,2.81-5.25,5.21-10.73,8-16,.89-1.66,2.65-2.85,4-4.26,1.38,1.79,3.67,3.45,3.95,5.4.63,4.35.15,8.86.19,13.3l1.54.56c2-2.34,4.28-4.52,6.07-7,2.41-3.37,4.36-7.07,6.83-10.39.8-1.09,3-2.28,3.91-1.88a5.58,5.58,0,0,1,2.89,3.91c.35,5,.13,10.11.13,16.13,8.12-5.13,9.58-13.92,14.68-19.8,3.61.22,5,1.82,4.85,5.38-.24,7.65.1,15.32-.18,23-.06,1.5-1.84,2.94-2.83,4.41-1.12-1.38-3-2.65-3.2-4.16-.45-3.08,0-6.29,0-9.45,0-2.11,0-4.22,0-6.33l-1.4-.34c-1.36,2.64-2.9,5.21-4.12,7.92-1.83,4.06-3.06,9.63-8.59,8.82-6-.86-4.41-6.85-5-11.09-.28-2.06-.37-4.14-.56-6.22l-1.3-.35a77.82,77.82,0,0,0-5,6.81c-1.82,3.16-3,6.69-4.95,9.77-.82,1.3-3.16,2.86-4.24,2.51a6.63,6.63,0,0,1-3.62-4.09c-.81-2.84-.74-5.91-1.07-8.89-.21-1.95-.51-3.89-.75-5.84Zm-32.72,10.53c6.47-1.7,10.52-8.76,8.47-14.78C284.94,454,281.49,460.05,283.69,466.77Z"/><path class="cls-2" d="M421.73,474.83a2.15,2.15,0,0,0-2-2.32h0c-3.35-.07-7.77,1.22-9.83-.43-4.13-3.31-7.11-8.12-10.24-12.54a6.34,6.34,0,0,1-.57-4.78,3.79,3.79,0,0,1,1.42-1.75,2.17,2.17,0,0,1,2.9.13,6.18,6.18,0,0,1,1.27,1.65c1.4,2.92,2.38,6,3.77,8.95,2,4.1,5.71,4.2,9.44,3.56s6.07-3.15,6.53-7.14a83.41,83.41,0,0,1,1.52-10.84,4.46,4.46,0,0,1,1.59-2.08,2.16,2.16,0,0,1,3.15.34c.77,1,1.45,2,1.28,2.86-2.22,11.06-4.88,22-7.35,33.05a69.61,69.61,0,0,0-2,10.75c-.13,2.18,1.4,4.44,1.44,6.67s-.25,4.93-1.55,6.46c-.82,1-2.39,1.32-3.95,1.67a2.18,2.18,0,0,1-2.56-1.52,5.77,5.77,0,0,1-.32-2.68c1.78-8.95,3.83-17.84,5.73-26.76A23.2,23.2,0,0,0,421.73,474.83Z"/><path class="cls-2" d="M394.46,470.92c2.34.76,3.35,3.63,1.54,5.29a3.92,3.92,0,0,1-3.13.94c-1.72-.16-4.39-3.3-4.48-5.2-.34-6.74.45-13.53.42-20.29,0-6.31-.74-12.62-.74-18.92,0-2.71-2-7.47,3-7.32,4.9.14,2.32,4.71,2.3,7.18-.05,11.14-.59,22.28-.83,33.42C392.54,468.19,392.72,470.35,394.46,470.92Z"/><path class="cls-2" d="M370.87,458.86c0-.33,0-.67,0-1,.08-3.06-.86-7.25,3.9-7.07,5.36.19,1.94,4.43,2.33,6.9s.72,5.24,1,7.87c.17,1.61.58,3.35.15,4.81-.36,1.23-1.8,2.13-2.77,3.17-1-1-2.59-1.76-2.87-2.9-1-3.84-1.44-7.8-2.11-11.72Z"/><path class="cls-2" d="M379.53,436.08a2.86,2.86,0,0,1-5.09-.84.89.89,0,0,1,0-.65,8.33,8.33,0,0,1,1.85-2.38,2.89,2.89,0,0,1,4.18.15c.38.44.62.82.53,1.09A10.54,10.54,0,0,1,379.53,436.08Z"/></g></g></svg>